# xmcd
#
# Track frame offsets: 
#        150
#        26652
#        54250
#        74960
#        94312
#        116955
#        151565
#        188800
#
# Disc length: 2808 seconds
#
# Revision: 2
# Processed by: cddbd v1.5.2PL0 Copyright (c) Steve Scherf et al.
# Submitted via: ExactAudioCopy v0.99pb5
#
DISCID=6c0af608
DTITLE=Guy Lafitte - Corps et Ame
DYEAR=1978
DGENRE=Jazz
TTITLE0=One for the bean
TTITLE1=Body and soul
TTITLE2=It's the talk of the town
TTITLE3=Stuffy
TTITLE4=Bonsoir jolie madame
TTITLE5=The way you look tonight
TTITLE6=Michel
TTITLE7=Smuggler's cave
EXTD=
EXTT0=
EXTT1=
EXTT2=
EXTT3=
EXTT4=
EXTT5=
EXTT6=
EXTT7=
PLAYORDER=
